<svg preserveAspectRatio="none" width="100%" height="100%" overflow="visible" style="display: block;" viewBox="0 0 12 12" fill="none" xmlns="http://www.w3.org/2000/svg">
<g id="Icon" clip-path="url(#clip0_0_4)">
<path id="Vector" d="M1.293 8.707C1.10545 8.89449 1.00006 9.1488 1 9.414V10.5C1 10.6326 1.05268 10.7598 1.14645 10.8536C1.24021 10.9473 1.36739 11 1.5 11H3C3.13261 11 3.25979 10.9473 3.35355 10.8536C3.44732 10.7598 3.5 10.6326 3.5 10.5V10C3.5 9.86739 3.55268 9.74021 3.64645 9.64645C3.74021 9.55268 3.86739 9.5 4 9.5H4.5C4.63261 9.5 4.75979 9.44732 4.85355 9.35355C4.94732 9.25979 5 9.13261 5 9V8.5C5 8.36739 5.05268 8.24021 5.14645 8.14645C5.24021 8.05268 5.36739 8 5.5 8H5.586C5.85119 7.99994 6.10551 7.89455 6.293 7.707L6.7 7.3C7.39492 7.54207 8.15142 7.54115 8.84574 7.29738C9.54006 7.0536 10.1311 6.58142 10.5222 5.95806C10.9133 5.33471 11.0812 4.59709 10.9986 3.86587C10.9159 3.13465 10.5876 2.45313 10.0672 1.93278C9.54687 1.41244 8.86535 1.08409 8.13413 1.00144C7.40291 0.918797 6.66529 1.08675 6.04194 1.47782C5.41858 1.86889 4.9464 2.45994 4.70262 3.15426C4.45885 3.84858 4.45793 4.60508 4.7 5.3L1.293 8.707Z" stroke="var(--stroke-0, #717182)" stroke-linecap="round" stroke-linejoin="round"/>
<path id="Vector_2" d="M8.25 4C8.38807 4 8.5 3.88807 8.5 3.75C8.5 3.61193 8.38807 3.5 8.25 3.5C8.11193 3.5 8 3.61193 8 3.75C8 3.88807 8.11193 4 8.25 4Z" fill="var(--fill-0, #717182)" stroke="var(--stroke-0, #717182)" stroke-linecap="round" stroke-linejoin="round"/>
</g>
<defs>
<clipPath id="clip0_0_4">
<rect width="12" height="12" fill="white"/>
</clipPath>
</defs>
</svg>
